# Blender 4.2.3 LTS
# www.blender.org
mtllib pruebita.mtl
o Cube
v 0.136140 1.298565 -0.355485
v 1.000000 -1.000000 -1.000000
v 0.355485 1.000000 0.355485
v 1.000000 -1.000000 1.000000
v -0.136140 1.298565 -0.355485
v -1.000000 -1.000000 -1.000000
v -0.355485 1.000000 0.355485
v -1.000000 -1.000000 1.000000
v 0.355485 1.967749 0.355485
v -0.355485 1.967749 0.355485
v 0.136140 1.669184 -0.355485
v -0.136140 1.669184 -0.355485
v 0.355485 1.000000 1.606335
v -0.355485 1.000000 1.606335
v 0.355485 1.967749 1.606335
v -0.355485 1.967749 1.606335
v 0.878087 1.980423 -0.563957
v -0.878087 1.980423 -0.563957
v 0.878087 1.980423 2.525777
v -0.878087 1.980423 2.525777
v -0.355485 1.967749 1.595546
v -0.355485 1.000000 1.595546
v -0.355485 1.967749 2.846396
v -0.355485 1.000000 2.846396
v 0.355485 1.967749 1.626305
v 0.355485 1.000000 1.626305
v 0.355485 1.967749 2.877155
v 0.355485 1.000000 2.877155
v 0.348183 1.967749 1.606335
v 0.348183 1.000000 1.606335
v 0.348183 1.967749 2.846396
v 0.348183 1.000000 2.846396
vn 0.9556 -0.0000 -0.2948
vn -0.0000 0.3067 0.9518
vn -0.9428 0.3308 -0.0398
vn -0.0000 -1.0000 -0.0000
vn 0.9428 0.3308 -0.0398
vn -0.0000 0.2700 -0.9629
vn -0.0000 0.9220 -0.3872
vn -0.0000 -0.0000 -1.0000
vn -1.0000 -0.0000 -0.0000
vn -0.9556 -0.0000 -0.2948
vn -0.0000 -0.0000 1.0000
vn 1.0000 -0.0000 -0.0000
vn -0.0000 -0.9999 0.0138
vn -0.0000 1.0000 -0.0000
vn 0.0242 -0.9997 -0.0000
vn -0.0242 -0.9997 -0.0000
vn -0.0000 -0.9999 -0.0138
vt 0.625000 0.750000
vt 0.625000 0.500000
vt 0.375000 0.750000
vt 0.625000 1.000000
vt 0.375000 1.000000
vt 0.375000 0.000000
vt 0.625000 0.000000
vt 0.625000 0.250000
vt 0.375000 0.250000
vt 0.125000 0.500000
vt 0.375000 0.500000
vt 0.125000 0.750000
vt 0.875000 0.500000
vt 0.875000 0.750000
s 0
usemtl Material
f 3/1/1 1/2/1 11/2/1 9/1/1
f 4/3/2 3/1/2 7/4/2 8/5/2
f 8/6/3 7/7/3 5/8/3 6/9/3
f 6/10/4 2/11/4 4/3/4 8/12/4
f 2/11/5 1/2/5 3/1/5 4/3/5
f 6/9/6 5/8/6 1/2/6 2/11/6
f 11/2/7 12/13/7 10/14/7 9/1/7
f 1/2/8 5/8/8 12/8/8 11/2/8
f 10/7/9 7/7/9 22/7/9 21/7/9
f 5/8/10 7/7/10 10/7/10 12/8/10
f 14/4/11 13/1/11 15/1/11 16/4/11
f 7/4/4 3/1/4 13/1/4 14/4/4
f 3/1/12 9/1/12 25/1/12 26/1/12
f 16/4/13 15/1/13 19/1/13 20/4/13
f 17/1/14 18/14/14 20/14/14 19/1/14
f 15/1/15 9/1/15 17/1/15 19/1/15
f 10/7/16 16/7/16 20/7/16 18/7/16
f 9/1/17 10/14/17 18/14/17 17/1/17
f 21/7/9 22/7/9 24/7/9 23/7/9
f 7/4/14 14/4/14 24/4/14 22/4/14
f 16/7/12 10/7/12 21/7/12 23/7/12
f 24/4/4 14/4/4 30/4/4 32/4/4
f 26/1/12 25/1/12 27/1/12 28/1/12
f 13/1/14 3/1/14 26/1/14 28/1/14
f 15/1/9 13/1/9 28/1/9 27/1/9
f 9/1/14 15/1/14 27/1/14 25/1/14
f 30/4/12 29/4/12 31/4/12 32/4/12
f 14/4/8 16/4/8 29/4/8 30/4/8
f 16/7/14 23/7/14 31/7/14 29/7/14
f 23/7/11 24/7/11 32/7/11 31/7/11
